<svg xmlns="http://www.w3.org/2000/svg" viewBox="126 253 1012 242" fill="#025523">
  <path d="M339.785,353V254.862h-10.2l-33.6,73.843q-1.165,2.6-1.951,4.859t-1.745,5h-0.41q-0.822-2.736-1.814-5.167t-2.019-4.756l-33.328-73.775H243.974V353h8.9V284.5q0-4.928-.1-8.965t-0.376-7.186h0.274a63.99,63.99,0,0,0,3.079,9.65L290.032,353h3.9l34.218-75.485a37.969,37.969,0,0,0,1.471-3.7q0.786-2.257,1.745-5.338h0.274q-0.821,11.567-.821,16.767V353h8.965Zm99.164,0-37.161-98.138h-9.17L355.252,353H365.38l10.539-29.017h42.089L428.821,353h10.128Zm-24.021-37.3H379l15.877-43.662q0.479-1.3.992-3.011a37.611,37.611,0,0,0,.924-3.9h0.274a29.3,29.3,0,0,0,.856,3.9q0.513,1.712.992,3.011Zm48.59-60.84h-9.1V353h9.1V254.862ZM565.693,353V254.862h-9.17v72.953q0,3.423.136,6.228t0.411,5.064h-0.342q-0.822-1.368-1.814-2.977t-2.224-3.456l-53.585-77.812H489.044V353h9.1V276.967q0-3.285-.1-5.475t-0.24-3.421h0.342a19.969,19.969,0,0,0,1.609,3.079q0.991,1.575,2.019,3.08L556.249,353h9.444Zm60.019-36.271V309.2H588.277v7.528h37.435ZM711.189,353l-45.374-50.78,42.568-47.358H696.817l-38.188,43.321q-0.615.753-1.163,1.437a15.807,15.807,0,0,0-1.026,1.437h-0.274v-46.2h-9.1V353h9.1V304.273h0.274a25.521,25.521,0,0,0,2.121,2.806L698.459,353h12.73ZM733.7,254.862h-9.1V353h9.1V254.862ZM835.879,353V254.862h-9.17v72.953q0,3.423.137,6.228t0.41,5.064h-0.342q-0.821-1.368-1.813-2.977t-2.224-3.456l-53.586-77.812h-10.06V353h9.1V276.967q0-3.285-.1-5.475t-0.239-3.421h0.342a19.873,19.873,0,0,0,1.608,3.079q0.991,1.575,2.019,3.08L826.435,353h9.444Zm88.352-95.811v-2.327H856.616v8.35H910.2l-58.239,87.119V353h71.105v-8.281H865.649Zm26.074-2.327h-9.1V353h9.1V254.862Zm97.655,48.18h-31.41v8.28h22.31v29.907q-9.165,5.2-21.62,5.2a39.6,39.6,0,0,1-16.29-3.148,33,33,0,0,1-11.842-8.76,37.676,37.676,0,0,1-7.22-13.311,54.182,54.182,0,0,1-2.361-16.8A51.224,51.224,0,0,1,982.4,287.4a41.1,41.1,0,0,1,7.905-13.585,36.293,36.293,0,0,1,12.354-9.033,38.852,38.852,0,0,1,16.22-3.285,55.032,55.032,0,0,1,27.1,6.98v-10.06a62.154,62.154,0,0,0-26.01-5.2,54.2,54.2,0,0,0-14.44,1.848,47.45,47.45,0,0,0-12.281,5.269,45.6,45.6,0,0,0-9.889,8.144,47.946,47.946,0,0,0-7.289,10.539,54.045,54.045,0,0,0-4.517,12.456,61.023,61.023,0,0,0-1.54,13.824,59.875,59.875,0,0,0,3.183,19.949,44.955,44.955,0,0,0,9.136,15.6,41.49,41.49,0,0,0,14.44,10.2,47.952,47.952,0,0,0,19.167,3.661,64.454,64.454,0,0,0,32.02-8.486V303.042Z"/>
  <path d="M206.193,478.225H189.762V461.794h-16.43v-16.43H156.9v-16.43h16.43V412.5h16.43v-16.43h16.431v-16.43H173.332v16.43H156.9V412.5h-16.43v16.43h-16.43v16.43h16.43v16.43H156.9v16.431h16.43v16.43h32.861v-16.43Zm152.469-98.581H325.8v49.29h-16.43V412.5h-16.43v-16.43h-16.43v-16.43H243.651V494.655h32.861V445.364h16.43v16.43h16.43v16.431H325.8v16.43h32.86V379.644ZM494.7,478.225H412.551V445.364h65.721v-16.43H412.551v-32.86H494.7v-16.43H379.691V494.655H494.7v-16.43Zm136.039,0h-16.43V461.794h-16.43v-16.43h32.86v-49.29h-16.43v-16.43H515.73V494.655h32.861V461.794h16.43v16.431h16.43v16.43h49.29v-16.43Zm-49.29-49.291v16.43h-32.86v-49.29h49.29v32.86h-16.43Zm185.33-16.43h-16.43v-16.43h-16.43v-16.43H651.77V494.655h82.151v-16.43h16.43V461.794h16.43V412.5Zm-49.29,49.29v16.431H684.63V396.074h32.861V412.5h16.43v49.29h-16.43Zm185.33-16.43H886.39v-16.43H820.67v-32.86h32.86V412.5h32.86v-16.43H869.96v-16.43H804.24v16.43H787.81v32.86h16.43v16.43h65.72v32.861H820.67V461.794H787.81v16.431h16.43v16.43h82.15v-16.43h16.431V445.364Zm152.469-65.72h-16.43v16.43h16.43v-16.43Zm-16.43,16.43h-16.43V412.5h16.43v-16.43Zm-16.43,16.43H1006v16.43h16.43V412.5ZM1006,428.934H989.57v16.43H1006v-16.43Zm-16.43,16.43H973.14v16.43h16.43v-16.43Zm-16.43,16.43H956.709v16.431H973.14V461.794Zm-16.431,16.431h-16.43v16.43h16.43v-16.43Zm182.041-49.291h-16.59V412.5h-16.27v-16.43h-16.43v-16.43H1056.6v16.43h16.43V412.5h16.43v16.43h16.43v16.43h-16.43v16.43h-16.43v16.431H1056.6v16.43h32.86v-16.43h16.43V461.794h16.27v-16.43h16.59v-16.43Z"/>
</svg>
